<?xml version="1.0" encoding="UTF-8"?>
<svg xmlns="http://www.w3.org/2000/svg" viewBox="0 0 700 580" width="700" height="580">
  <rect width="700" height="580" fill="#FAFBFC"/>
  
<defs>
  <marker id="arrow" viewBox="0 0 10 10" refX="8" refY="5" markerWidth="6" markerHeight="6" orient="auto"><path d="M0,0 L10,5 L0,10 Z" fill="#999"/></marker>
</defs>
<rect x="50" y="20" width="600" height="50" rx="4" fill="#E8F0FE" stroke="#4A7CF7" stroke-width="1.5"/>
<text x="350" y="45" text-anchor="middle" dominant-baseline="central" font-family="Arial" font-size="15" fill="#1a237e" font-weight="bold">表示层 — Vue 前端 (GUI)  /  Java CLI (控制台)</text>
<rect x="50" y="100" width="600" height="50" rx="4" fill="#E8F5E9" stroke="#4CAF50" stroke-width="1.5"/>
<text x="350" y="125" text-anchor="middle" dominant-baseline="central" font-family="Arial" font-size="15" fill="#1b5e20" font-weight="bold">业务层 — REST API (HttpServer :8080)</text>
<line x1="350" y1="70" x2="350" y2="100" stroke="#999" stroke-width="1.5" marker-end="url(#arrow)"/>
<text x="350" y="77" text-anchor="middle" font-family="Arial" font-size="11" fill="#666">HTTP / 方法调用</text>
<rect x="50" y="180" width="600" height="170" rx="4" fill="#FFF3E0" stroke="#FF9800" stroke-width="1.5"/>
<text x="350" y="265" text-anchor="middle" dominant-baseline="central" font-family="Arial" font-size="15" fill="#e65100" font-weight="bold">核心层 — 文件系统逻辑</text>
<rect x="80" y="210" width="540" height="35" rx="4" fill="#FFECB3" stroke="#FF9800" stroke-width="1.5"/>
<text x="350" y="227.5" text-anchor="middle" dominant-baseline="central" font-family="Arial" font-size="13" fill="#e65100" font-weight="bold">FileSystem — 统一操作入口</text>
<rect x="80" y="255" width="170" height="35" rx="4" fill="#FFECB3" stroke="#FF9800" stroke-width="1.5"/>
<text x="165" y="272.5" text-anchor="middle" dominant-baseline="central" font-family="Arial" font-size="12" fill="#333">DirectoryManager</text>
<rect x="270" y="255" width="170" height="35" rx="4" fill="#FFECB3" stroke="#FF9800" stroke-width="1.5"/>
<text x="355" y="272.5" text-anchor="middle" dominant-baseline="central" font-family="Arial" font-size="12" fill="#333">FileAllocator</text>
<rect x="460" y="255" width="160" height="35" rx="4" fill="#FFECB3" stroke="#FF9800" stroke-width="1.5"/>
<text x="540" y="272.5" text-anchor="middle" dominant-baseline="central" font-family="Arial" font-size="12" fill="#333">PathResolver</text>
<rect x="80" y="300" width="170" height="35" rx="4" fill="#FFECB3" stroke="#FF9800" stroke-width="1.5"/>
<text x="165" y="317.5" text-anchor="middle" dominant-baseline="central" font-family="Arial" font-size="12" fill="#333">InodeManager</text>
<rect x="270" y="300" width="170" height="35" rx="4" fill="#FFECB3" stroke="#FF9800" stroke-width="1.5"/>
<text x="355" y="317.5" text-anchor="middle" dominant-baseline="central" font-family="Arial" font-size="12" fill="#333">BitmapManager</text>
<line x1="350" y1="245" x2="350" y2="255" stroke="#999" stroke-width="1.5" marker-end="url(#arrow)"/>

<line x1="165" y1="290" x2="165" y2="300" stroke="#999" stroke-width="1.5" marker-end="url(#arrow)"/>

<line x1="355" y1="290" x2="355" y2="300" stroke="#999" stroke-width="1.5" marker-end="url(#arrow)"/>

<rect x="50" y="380" width="600" height="50" rx="4" fill="#F3E5F5" stroke="#9C27B0" stroke-width="1.5"/>
<text x="350" y="405" text-anchor="middle" dominant-baseline="central" font-family="Arial" font-size="14" fill="#4a148c" font-weight="bold">驱动层 — DiskDriver (虚拟磁盘读写 / 持久化 save/load)</text>
<line x1="350" y1="350" x2="350" y2="380" stroke="#999" stroke-width="1.5" marker-end="url(#arrow)"/>

<rect x="50" y="460" width="600" height="50" rx="4" fill="#ECEFF1" stroke="#607D8B" stroke-width="1.5"/>
<text x="350" y="485" text-anchor="middle" dominant-baseline="central" font-family="Arial" font-size="14" fill="#333">物理存储 — filesystem.img  (16 MB 虚拟磁盘映像文件)</text>
<line x1="350" y1="430" x2="350" y2="460" stroke="#999" stroke-width="1.5" marker-end="url(#arrow)"/>


</svg>