<?xml version="1.0" encoding="UTF-8"?>
<svg xmlns="http://www.w3.org/2000/svg" viewBox="0 0 700 500" width="700" height="500">
  <rect width="700" height="500" fill="#FAFBFC"/>
  
<defs>
  <marker id="ar2" viewBox="0 0 10 10" refX="8" refY="5" markerWidth="6" markerHeight="6" orient="auto"><path d="M0,0 L10,5 L0,10 Z" fill="#999"/></marker>
</defs>
<rect x="260" y="10" width="180" height="40" rx="4" fill="#E8F0FE" stroke="#4A7CF7" stroke-width="1.5"/>
<text x="350" y="30" text-anchor="middle" dominant-baseline="central" font-family="Arial" font-size="13" fill="#1a237e" font-weight="bold">FsCliApp</text>
<rect x="260" y="60" width="180" height="40" rx="4" fill="#E8F0FE" stroke="#4A7CF7" stroke-width="1.5"/>
<text x="350" y="80" text-anchor="middle" dominant-baseline="central" font-family="Arial" font-size="13" fill="#1a237e" font-weight="bold">FsApiApp</text>
<line x1="350" y1="50" x2="350" y2="60" stroke="#999" stroke-width="1.5" marker-end="url(#arrow)"/>

<rect x="210" y="110" width="280" height="40" rx="4" fill="#E8F5E9" stroke="#4CAF50" stroke-width="1.5"/>
<text x="350" y="130" text-anchor="middle" dominant-baseline="central" font-family="Arial" font-size="13" fill="#1b5e20" font-weight="bold">CommandParser  /  ApiServer</text>
<line x1="350" y1="100" x2="350" y2="110" stroke="#999" stroke-width="1.5" marker-end="url(#arrow)"/>

<rect x="210" y="160" width="280" height="40" rx="4" fill="#FFF3E0" stroke="#FF9800" stroke-width="1.5"/>
<text x="350" y="180" text-anchor="middle" dominant-baseline="central" font-family="Arial" font-size="14" fill="#e65100" font-weight="bold">FileSystem (核心 API)</text>
<line x1="350" y1="150" x2="350" y2="160" stroke="#999" stroke-width="1.5" marker-end="url(#arrow)"/>

<rect x="30" y="220" width="200" height="35" rx="4" fill="#FFECB3" stroke="#FF9800" stroke-width="1.5"/>
<text x="130" y="237.5" text-anchor="middle" dominant-baseline="central" font-family="Arial" font-size="12" fill="#333">DirectoryManager</text>
<rect x="250" y="220" width="200" height="35" rx="4" fill="#FFECB3" stroke="#FF9800" stroke-width="1.5"/>
<text x="350" y="237.5" text-anchor="middle" dominant-baseline="central" font-family="Arial" font-size="12" fill="#333">FileAllocator</text>
<rect x="470" y="220" width="200" height="35" rx="4" fill="#FFECB3" stroke="#FF9800" stroke-width="1.5"/>
<text x="570" y="237.5" text-anchor="middle" dominant-baseline="central" font-family="Arial" font-size="12" fill="#333">PathResolver</text>
<line x1="210" y1="180" x2="130" y2="220" stroke="#999" stroke-width="1.5" marker-end="url(#arrow)"/>

<line x1="350" y1="180" x2="350" y2="220" stroke="#999" stroke-width="1.5" marker-end="url(#arrow)"/>

<line x1="490" y1="180" x2="570" y2="220" stroke="#999" stroke-width="1.5" marker-end="url(#arrow)"/>

<rect x="30" y="280" width="200" height="35" rx="4" fill="#F3E5F5" stroke="#9C27B0" stroke-width="1.5"/>
<text x="130" y="297.5" text-anchor="middle" dominant-baseline="central" font-family="Arial" font-size="12" fill="#333">InodeManager</text>
<rect x="250" y="280" width="200" height="35" rx="4" fill="#F3E5F5" stroke="#9C27B0" stroke-width="1.5"/>
<text x="350" y="297.5" text-anchor="middle" dominant-baseline="central" font-family="Arial" font-size="12" fill="#333">BitmapManager</text>
<line x1="130" y1="255" x2="130" y2="280" stroke="#999" stroke-width="1.5" marker-end="url(#arrow)"/>

<line x1="350" y1="255" x2="350" y2="280" stroke="#999" stroke-width="1.5" marker-end="url(#arrow)"/>

<rect x="130" y="340" width="200" height="35" rx="4" fill="#ECEFF1" stroke="#607D8B" stroke-width="1.5"/>
<text x="230" y="357.5" text-anchor="middle" dominant-baseline="central" font-family="Arial" font-size="13" fill="#333" font-weight="bold">DiskDriver</text>
<line x1="130" y1="315" x2="180" y2="340" stroke="#999" stroke-width="1.5" marker-end="url(#arrow)"/>

<line x1="350" y1="315" x2="320" y2="340" stroke="#999" stroke-width="1.5" marker-end="url(#arrow)"/>

<rect x="130" y="400" width="200" height="35" rx="4" fill="#CFD8DC" stroke="#455A64" stroke-width="1.5"/>
<text x="230" y="417.5" text-anchor="middle" dominant-baseline="central" font-family="Arial" font-size="13" fill="#333">filesystem.img</text>
<line x1="230" y1="375" x2="230" y2="400" stroke="#999" stroke-width="1.5" marker-end="url(#arrow)"/>


</svg>