<?xml version="1.0" encoding="UTF-8"?>
<svg xmlns="http://www.w3.org/2000/svg" viewBox="0 0 500 380" width="500" height="380">
  <rect width="500" height="380" fill="#FAFBFC"/>
  
<rect x="220" y="10" width="80" height="30" rx="4" fill="#E8F0FE" stroke="#4A7CF7" stroke-width="1.5"/>
<text x="260" y="25" text-anchor="middle" dominant-baseline="central" font-family="Arial" font-size="13" fill="#1a237e" font-weight="bold">root</text>
<line x1="260" y1="40" x2="260" y2="60" stroke="#999" stroke-width="1.5"/>
<line x1="100" y1="60" x2="420" y2="60" stroke="#999" stroke-width="1.5"/>
<line x1="100" y1="60" x2="100" y2="80" stroke="#999" stroke-width="1.5"/>
<line x1="260" y1="60" x2="260" y2="80" stroke="#999" stroke-width="1.5"/>
<line x1="420" y1="60" x2="420" y2="80" stroke="#999" stroke-width="1.5"/>
<rect x="60" y="80" width="80" height="30" rx="4" fill="#E8F5E9" stroke="#4CAF50" stroke-width="1.5"/>
<text x="100" y="95" text-anchor="middle" dominant-baseline="central" font-family="Arial" font-size="13" fill="#1b5e20" font-weight="bold">home</text>
<rect x="220" y="80" width="80" height="30" rx="4" fill="#E8F5E9" stroke="#4CAF50" stroke-width="1.5"/>
<text x="260" y="95" text-anchor="middle" dominant-baseline="central" font-family="Arial" font-size="13" fill="#1b5e20" font-weight="bold">etc</text>
<rect x="380" y="80" width="80" height="30" rx="4" fill="#E8F5E9" stroke="#4CAF50" stroke-width="1.5"/>
<text x="420" y="95" text-anchor="middle" dominant-baseline="central" font-family="Arial" font-size="13" fill="#1b5e20" font-weight="bold">tmp</text>
<line x1="100" y1="110" x2="100" y2="130" stroke="#999" stroke-width="1.5"/>
<line x1="40" y1="130" x2="160" y2="130" stroke="#999" stroke-width="1.5"/>
<line x1="40" y1="130" x2="40" y2="150" stroke="#999" stroke-width="1.5"/>
<line x1="100" y1="130" x2="100" y2="150" stroke="#999" stroke-width="1.5"/>
<line x1="160" y1="130" x2="160" y2="150" stroke="#999" stroke-width="1.5"/>
<rect x="10" y="150" width="80" height="30" rx="4" fill="#E8F5E9" stroke="#4CAF50" stroke-width="1.5"/>
<text x="50" y="165" text-anchor="middle" dominant-baseline="central" font-family="Arial" font-size="12" fill="#1b5e20" font-weight="bold">user1</text>
<rect x="60" y="150" width="80" height="30" rx="4" fill="#FFF3E0" stroke="#FF9800" stroke-width="1.5"/>
<text x="100" y="165" text-anchor="middle" dominant-baseline="central" font-family="Arial" font-size="12" fill="#e65100" font-weight="bold">user2</text>
<rect x="120" y="150" width="80" height="30" rx="4" fill="#E8F5E9" stroke="#4CAF50" stroke-width="1.5"/>
<text x="160" y="165" text-anchor="middle" dominant-baseline="central" font-family="Arial" font-size="12" fill="#1b5e20" font-weight="bold">share</text>
<line x1="50" y1="180" x2="50" y2="200" stroke="#999" stroke-width="1.5"/>
<line x1="10" y1="200" x2="90" y2="200" stroke="#999" stroke-width="1.5"/>
<line x1="10" y1="200" x2="10" y2="220" stroke="#999" stroke-width="1.5"/>
<line x1="50" y1="200" x2="50" y2="220" stroke="#999" stroke-width="1.5"/>
<line x1="90" y1="200" x2="90" y2="220" stroke="#999" stroke-width="1.5"/>
<rect x="10" y="220" width="50" height="25" rx="4" fill="#FFF3E0" stroke="#FF9800" stroke-width="1.5"/>
<text x="35" y="232.5" text-anchor="middle" dominant-baseline="central" font-family="Arial" font-size="11" fill="#e65100">docs</text>
<rect x="65" y="220" width="50" height="25" rx="4" fill="#FFF3E0" stroke="#FF9800" stroke-width="1.5"/>
<text x="90" y="232.5" text-anchor="middle" dominant-baseline="central" font-family="Arial" font-size="11" fill="#e65100">photos</text>
<line x1="35" y1="245" x2="35" y2="260" stroke="#999" stroke-width="1.5"/>
<line x1="15" y1="260" x2="55" y2="260" stroke="#999" stroke-width="1.5"/>
<line x1="15" y1="260" x2="15" y2="275" stroke="#999" stroke-width="1.5"/>
<line x1="55" y1="260" x2="55" y2="275" stroke="#999" stroke-width="1.5"/>
<rect x="10" y="275" width="45" height="25" rx="4" fill="#FFFFFF" stroke="#CCC" stroke-width="1.5"/>
<text x="32.5" y="287.5" text-anchor="middle" dominant-baseline="central" font-family="Arial" font-size="10" fill="#333">report.txt</text>
<rect x="60" y="275" width="45" height="25" rx="4" fill="#FFFFFF" stroke="#CCC" stroke-width="1.5"/>
<text x="82.5" y="287.5" text-anchor="middle" dominant-baseline="central" font-family="Arial" font-size="10" fill="#333">readme.md</text>
// Legend
<rect x="300" y="170" width="150" height="60" rx="4" fill="#F5F5F5" stroke="#CCC" stroke-width="1.5"/>
<text x="375" y="200" text-anchor="middle" dominant-baseline="central" font-family="Arial" font-size="12" fill="#555">📁 目录
📄 文件</text>

</svg>